# xmcd
#
# Track frame offsets: 
#        150
#        14626
#        28212
#        60379
#        72902
#        84861
#        103986
#        115375
#        122116
#
# Disc length: 2249 seconds
#
# Revision: 0
# Processed by: cddbd v1.5.2PL0 Copyright (c) Steve Scherf et al.
# Submitted via: ExactAudioCopy v0.95b3
#
DISCID=7a08c709
DTITLE=Argent  - Counterpoints  FLAC
DYEAR=1900
DGENRE=
TTITLE0=On My Feet Again
TTITLE1=I Can't Remember, But Yes
TTITLE2=Time
TTITLE3=Waiting for the yellow one
TTITLE4=It's Fallen Off
TTITLE5=Be Strong
TTITLE6=Rock and Roll Show
TTITLE7=Butterfly
TTITLE8=Road Back Home
EXTD=
EXTT0=
EXTT1=
EXTT2=
EXTT3=
EXTT4=
EXTT5=
EXTT6=
EXTT7=
EXTT8=
PLAYORDER=
